<mxfile host="app.diagrams.net" modified="2020-04-01T13:31:13.453Z" agent="5.0 (Windows NT 10.0; Win64; x64) AppleWebKit/537.36 (KHTML, like Gecko) Chrome/80.0.3987.149 Safari/537.36" etag="aJi4ZQznbD0nCDTLrddt" version="12.9.6" type="github">
  <diagram id="Ull_arlzXUi3eMXvQvcI" name="Page-1">
    <mxGraphModel dx="950" dy="435" grid="1" gridSize="10" guides="1" tooltips="1" connect="1" arrows="1" fold="1" page="1" pageScale="1" pageWidth="827" pageHeight="1169" math="0" shadow="0">
      <root>
        <mxCell id="0" />
        <mxCell id="1" parent="0" />
        <mxCell id="IJ-zU7nh_63_RIWm7HRf-1" value="phase_tree&lt;br&gt;[Root Node]" style="rounded=0;whiteSpace=wrap;html=1;fillColor=none;" vertex="1" parent="1">
          <mxGeometry x="200" y="40" width="80" height="40" as="geometry" />
        </mxCell>
        <mxCell id="IJ-zU7nh_63_RIWm7HRf-2" value="initialization&lt;br&gt;[Node]" style="rounded=0;whiteSpace=wrap;html=1;fillColor=none;" vertex="1" parent="1">
          <mxGeometry x="100" y="120" width="80" height="40" as="geometry" />
        </mxCell>
        <mxCell id="IJ-zU7nh_63_RIWm7HRf-3" value="launcher&lt;br&gt;[Node]" style="rounded=0;whiteSpace=wrap;html=1;fillColor=none;" vertex="1" parent="1">
          <mxGeometry x="200" y="120" width="80" height="40" as="geometry" />
        </mxCell>
        <mxCell id="IJ-zU7nh_63_RIWm7HRf-4" value="main&lt;br&gt;[Node]" style="rounded=0;whiteSpace=wrap;html=1;fillColor=none;" vertex="1" parent="1">
          <mxGeometry x="300" y="120" width="80" height="40" as="geometry" />
        </mxCell>
        <mxCell id="IJ-zU7nh_63_RIWm7HRf-5" value="" style="endArrow=none;html=1;" edge="1" parent="1" source="IJ-zU7nh_63_RIWm7HRf-2" target="IJ-zU7nh_63_RIWm7HRf-1">
          <mxGeometry width="50" height="50" relative="1" as="geometry">
            <mxPoint x="20" y="120" as="sourcePoint" />
            <mxPoint x="70" y="70" as="targetPoint" />
          </mxGeometry>
        </mxCell>
        <mxCell id="IJ-zU7nh_63_RIWm7HRf-6" value="" style="endArrow=none;html=1;" edge="1" parent="1" source="IJ-zU7nh_63_RIWm7HRf-3" target="IJ-zU7nh_63_RIWm7HRf-1">
          <mxGeometry width="50" height="50" relative="1" as="geometry">
            <mxPoint x="20" y="120" as="sourcePoint" />
            <mxPoint x="70" y="70" as="targetPoint" />
          </mxGeometry>
        </mxCell>
        <mxCell id="IJ-zU7nh_63_RIWm7HRf-7" value="" style="endArrow=none;html=1;" edge="1" parent="1" source="IJ-zU7nh_63_RIWm7HRf-4" target="IJ-zU7nh_63_RIWm7HRf-1">
          <mxGeometry width="50" height="50" relative="1" as="geometry">
            <mxPoint x="20" y="120" as="sourcePoint" />
            <mxPoint x="70" y="70" as="targetPoint" />
          </mxGeometry>
        </mxCell>
        <mxCell id="IJ-zU7nh_63_RIWm7HRf-8" value="_summary&lt;br&gt;[Certain Leaf]" style="rounded=1;whiteSpace=wrap;html=1;fillColor=none;" vertex="1" parent="1">
          <mxGeometry x="400" y="120" width="80" height="40" as="geometry" />
        </mxCell>
        <mxCell id="IJ-zU7nh_63_RIWm7HRf-9" value="" style="endArrow=none;html=1;" edge="1" parent="1" source="IJ-zU7nh_63_RIWm7HRf-8" target="IJ-zU7nh_63_RIWm7HRf-1">
          <mxGeometry width="50" height="50" relative="1" as="geometry">
            <mxPoint x="20" y="120" as="sourcePoint" />
            <mxPoint x="70" y="70" as="targetPoint" />
          </mxGeometry>
        </mxCell>
        <mxCell id="IJ-zU7nh_63_RIWm7HRf-10" value="_summary&lt;br&gt;[Certain Leaf]" style="rounded=1;whiteSpace=wrap;html=1;fillColor=none;" vertex="1" parent="1">
          <mxGeometry x="120" y="200" width="80" height="40" as="geometry" />
        </mxCell>
        <mxCell id="IJ-zU7nh_63_RIWm7HRf-11" value="init&lt;br&gt;[Leaf]" style="rounded=1;whiteSpace=wrap;html=1;fillColor=none;" vertex="1" parent="1">
          <mxGeometry x="20" y="200" width="80" height="40" as="geometry" />
        </mxCell>
        <mxCell id="IJ-zU7nh_63_RIWm7HRf-12" value="" style="endArrow=none;html=1;" edge="1" parent="1" source="IJ-zU7nh_63_RIWm7HRf-2" target="IJ-zU7nh_63_RIWm7HRf-11">
          <mxGeometry width="50" height="50" relative="1" as="geometry">
            <mxPoint x="20" y="120" as="sourcePoint" />
            <mxPoint x="70" y="70" as="targetPoint" />
          </mxGeometry>
        </mxCell>
        <mxCell id="IJ-zU7nh_63_RIWm7HRf-13" value="" style="endArrow=none;html=1;" edge="1" parent="1" source="IJ-zU7nh_63_RIWm7HRf-2" target="IJ-zU7nh_63_RIWm7HRf-10">
          <mxGeometry width="50" height="50" relative="1" as="geometry">
            <mxPoint x="20" y="120" as="sourcePoint" />
            <mxPoint x="70" y="70" as="targetPoint" />
          </mxGeometry>
        </mxCell>
        <mxCell id="IJ-zU7nh_63_RIWm7HRf-14" value="[Certain Leaf]&lt;br&gt;And [Leafs]" style="dashed=1;&#xa;rounded=1;whiteSpace=wrap;html=1;fillColor=none;" vertex="1" parent="1">
          <mxGeometry x="220" y="200" width="80" height="40" as="geometry" />
        </mxCell>
        <mxCell id="IJ-zU7nh_63_RIWm7HRf-15" value="" style="endArrow=none;html=1;" edge="1" parent="1" source="IJ-zU7nh_63_RIWm7HRf-3" target="IJ-zU7nh_63_RIWm7HRf-14">
          <mxGeometry width="50" height="50" relative="1" as="geometry">
            <mxPoint x="20" y="120" as="sourcePoint" />
            <mxPoint x="70" y="70" as="targetPoint" />
          </mxGeometry>
        </mxCell>
        <mxCell id="IJ-zU7nh_63_RIWm7HRf-16" value="[Certain Leaf]&lt;br&gt;And [Leafs]" style="dashed=1;&#xa;rounded=1;whiteSpace=wrap;html=1;fillColor=none;" vertex="1" parent="1">
          <mxGeometry x="320" y="200" width="80" height="40" as="geometry" />
        </mxCell>
        <mxCell id="IJ-zU7nh_63_RIWm7HRf-17" value="" style="endArrow=none;html=1;" edge="1" parent="1" source="IJ-zU7nh_63_RIWm7HRf-4" target="IJ-zU7nh_63_RIWm7HRf-16">
          <mxGeometry width="50" height="50" relative="1" as="geometry">
            <mxPoint x="20" y="120" as="sourcePoint" />
            <mxPoint x="70" y="70" as="targetPoint" />
          </mxGeometry>
        </mxCell>
        <mxCell id="IJ-zU7nh_63_RIWm7HRf-18" value="Start" style="shape=parallelogram;perimeter=parallelogramPerimeter;whiteSpace=wrap;html=1;dashed=0;fillColor=none;" vertex="1" parent="1">
          <mxGeometry x="20" y="280" width="40" height="30" as="geometry" />
        </mxCell>
        <mxCell id="IJ-zU7nh_63_RIWm7HRf-19" value="End" style="shape=parallelogram;perimeter=parallelogramPerimeter;whiteSpace=wrap;html=1;dashed=0;fillColor=none;" vertex="1" parent="1">
          <mxGeometry x="60" y="280" width="40" height="30" as="geometry" />
        </mxCell>
        <mxCell id="IJ-zU7nh_63_RIWm7HRf-22" value="" style="endArrow=none;html=1;" edge="1" parent="1" source="IJ-zU7nh_63_RIWm7HRf-18" target="IJ-zU7nh_63_RIWm7HRf-11">
          <mxGeometry width="50" height="50" relative="1" as="geometry">
            <mxPoint x="20" y="120" as="sourcePoint" />
            <mxPoint x="70" y="70" as="targetPoint" />
          </mxGeometry>
        </mxCell>
        <mxCell id="IJ-zU7nh_63_RIWm7HRf-23" value="" style="endArrow=none;html=1;" edge="1" parent="1" source="IJ-zU7nh_63_RIWm7HRf-19" target="IJ-zU7nh_63_RIWm7HRf-11">
          <mxGeometry width="50" height="50" relative="1" as="geometry">
            <mxPoint x="20" y="120" as="sourcePoint" />
            <mxPoint x="70" y="70" as="targetPoint" />
          </mxGeometry>
        </mxCell>
        <mxCell id="IJ-zU7nh_63_RIWm7HRf-24" value="Start" style="shape=parallelogram;perimeter=parallelogramPerimeter;whiteSpace=wrap;html=1;dashed=0;fillColor=none;" vertex="1" parent="1">
          <mxGeometry x="120" y="280" width="40" height="30" as="geometry" />
        </mxCell>
        <mxCell id="IJ-zU7nh_63_RIWm7HRf-25" value="End" style="shape=parallelogram;perimeter=parallelogramPerimeter;whiteSpace=wrap;html=1;dashed=0;fillColor=none;" vertex="1" parent="1">
          <mxGeometry x="160" y="280" width="40" height="30" as="geometry" />
        </mxCell>
        <mxCell id="IJ-zU7nh_63_RIWm7HRf-26" value="" style="endArrow=none;html=1;" edge="1" parent="1" source="IJ-zU7nh_63_RIWm7HRf-24" target="IJ-zU7nh_63_RIWm7HRf-10">
          <mxGeometry width="50" height="50" relative="1" as="geometry">
            <mxPoint x="20" y="120" as="sourcePoint" />
            <mxPoint x="70" y="70" as="targetPoint" />
          </mxGeometry>
        </mxCell>
        <mxCell id="IJ-zU7nh_63_RIWm7HRf-27" value="" style="endArrow=none;html=1;" edge="1" parent="1" source="IJ-zU7nh_63_RIWm7HRf-25" target="IJ-zU7nh_63_RIWm7HRf-10">
          <mxGeometry width="50" height="50" relative="1" as="geometry">
            <mxPoint x="20" y="120" as="sourcePoint" />
            <mxPoint x="70" y="70" as="targetPoint" />
          </mxGeometry>
        </mxCell>
        <mxCell id="IJ-zU7nh_63_RIWm7HRf-28" value="Start" style="shape=parallelogram;perimeter=parallelogramPerimeter;whiteSpace=wrap;html=1;dashed=0;fillColor=none;" vertex="1" parent="1">
          <mxGeometry x="400" y="280" width="40" height="30" as="geometry" />
        </mxCell>
        <mxCell id="IJ-zU7nh_63_RIWm7HRf-29" value="End" style="shape=parallelogram;perimeter=parallelogramPerimeter;whiteSpace=wrap;html=1;dashed=0;fillColor=none;" vertex="1" parent="1">
          <mxGeometry x="440" y="280" width="40" height="30" as="geometry" />
        </mxCell>
        <mxCell id="IJ-zU7nh_63_RIWm7HRf-30" value="" style="endArrow=none;html=1;" edge="1" parent="1" source="IJ-zU7nh_63_RIWm7HRf-29" target="IJ-zU7nh_63_RIWm7HRf-8">
          <mxGeometry width="50" height="50" relative="1" as="geometry">
            <mxPoint x="20" y="120" as="sourcePoint" />
            <mxPoint x="70" y="70" as="targetPoint" />
          </mxGeometry>
        </mxCell>
        <mxCell id="IJ-zU7nh_63_RIWm7HRf-31" value="" style="endArrow=none;html=1;" edge="1" parent="1" source="IJ-zU7nh_63_RIWm7HRf-28" target="IJ-zU7nh_63_RIWm7HRf-8">
          <mxGeometry width="50" height="50" relative="1" as="geometry">
            <mxPoint x="20" y="120" as="sourcePoint" />
            <mxPoint x="70" y="70" as="targetPoint" />
          </mxGeometry>
        </mxCell>
      </root>
    </mxGraphModel>
  </diagram>
</mxfile>
